<svg width="39" height="39" viewBox="0 0 39 39" fill="none" xmlns="http://www.w3.org/2000/svg">
<path fill-rule="evenodd" clip-rule="evenodd" d="M15 14.5C15 13.4391 15.4214 12.4217 16.1716 11.6716C16.9217 10.9214 17.9391 10.5 19 10.5C20.0609 10.5 21.0783 10.9214 21.8284 11.6716C22.5786 12.4217 23 13.4391 23 14.5C23 15.5609 22.5786 16.5783 21.8284 17.3284C21.0783 18.0786 20.0609 18.5 19 18.5C17.9391 18.5 16.9217 18.0786 16.1716 17.3284C15.4214 16.5783 15 15.5609 15 14.5ZM15 20.5C13.6739 20.5 12.4021 21.0268 11.4645 21.9645C10.5268 22.9021 10 24.1739 10 25.5C10 26.2956 10.3161 27.0587 10.8787 27.6213C11.4413 28.1839 12.2044 28.5 13 28.5H25C25.7956 28.5 26.5587 28.1839 27.1213 27.6213C27.6839 27.0587 28 26.2956 28 25.5C28 24.1739 27.4732 22.9021 26.5355 21.9645C25.5979 21.0268 24.3261 20.5 23 20.5H15Z" fill="#6A6A6A"/>
</svg>
