<svg width="20" height="15" viewBox="0 0 20 15" fill="none" xmlns="http://www.w3.org/2000/svg">
<path d="M10 14.75C9.01562 14.75 8.25 13.9844 8.25 13H11.7227C11.7227 13.9844 10.957 14.75 10 14.75ZM15.8789 10.6758C16.043 10.8398 16.125 11.0586 16.125 11.25C16.0977 11.7148 15.7695 12.125 15.2227 12.125H4.75C4.20312 12.125 3.875 11.7148 3.875 11.25C3.84766 11.0586 3.92969 10.8398 4.09375 10.6758C4.61328 10.1016 5.625 9.25391 5.625 6.4375C5.625 4.33203 7.10156 2.63672 9.125 2.19922V1.625C9.125 1.16016 9.50781 0.75 10 0.75C10.4648 0.75 10.8477 1.16016 10.8477 1.625V2.19922C12.8711 2.63672 14.3477 4.33203 14.3477 6.4375C14.3477 9.25391 15.3594 10.1016 15.8789 10.6758Z" fill="#374151"/>
</svg>
