<svg width="20" height="15" viewBox="0 0 20 15" fill="none" xmlns="http://www.w3.org/2000/svg">
<path d="M18.5586 13.3008C18.75 13.4375 18.8047 13.7109 18.6406 13.9023L18.1211 14.5859C17.957 14.7773 17.6836 14.8047 17.4922 14.668L1.41406 2.22656C1.22266 2.08984 1.19531 1.81641 1.33203 1.625L1.87891 0.941406C2.01562 0.75 2.28906 0.695312 2.48047 0.859375L6.52734 3.97656C6.66406 2.17188 8.14062 0.75 10 0.75C11.9141 0.75 13.5 2.33594 13.5 4.25C13.5 5.78125 12.5156 7.06641 11.1484 7.55859L18.5586 13.3008ZM3.875 12.3164C3.875 10.4844 5.1875 9.00781 6.91016 8.70703L14.7578 14.75H5.1875C4.44922 14.75 3.875 14.1758 3.875 13.4375V12.3164Z" fill="#374151"/>
</svg>
