<svg width="25" height="24" viewBox="0 0 25 24" fill="none" xmlns="http://www.w3.org/2000/svg">
<path d="M15.5 22.75H9.5C4.07 22.75 1.75 20.43 1.75 15V9C1.75 3.57 4.07 1.25 9.5 1.25H15.5C20.93 1.25 23.25 3.57 23.25 9V15C23.25 20.43 20.93 22.75 15.5 22.75ZM9.5 2.75C4.89 2.75 3.25 4.39 3.25 9V15C3.25 19.61 4.89 21.25 9.5 21.25H15.5C20.11 21.25 21.75 19.61 21.75 15V9C21.75 4.39 20.11 2.75 15.5 2.75H9.5Z" fill="#CB65EF"/>
<path d="M14.2602 17.75H10.7302C9.63023 17.75 8.76023 17.21 8.27023 16.23L7.38023 14.44C7.17023 14.01 6.74023 13.75 6.26023 13.75H2.49023C2.08023 13.75 1.74023 13.41 1.74023 13C1.74023 12.59 2.09023 12.25 2.50023 12.25H6.26023C7.31024 12.25 8.25024 12.83 8.72023 13.77L9.61023 15.56C9.84023 16.02 10.2102 16.25 10.7302 16.25H14.2602C14.7402 16.25 15.1702 15.99 15.3802 15.56L16.2702 13.77C16.7402 12.83 17.6802 12.25 18.7302 12.25H22.4702C22.8802 12.25 23.2202 12.59 23.2202 13C23.2202 13.41 22.8802 13.75 22.4702 13.75H18.7302C18.2502 13.75 17.8202 14.01 17.6102 14.44L16.7202 16.23C16.2502 17.17 15.3102 17.75 14.2602 17.75Z" fill="#CB65EF"/>
</svg>
