<svg width="53" height="44" viewBox="0 0 53 44" fill="none" xmlns="http://www.w3.org/2000/svg">
<path d="M29.5 34.75H23.5C18.07 34.75 15.75 32.43 15.75 27V21C15.75 15.57 18.07 13.25 23.5 13.25H29.5C34.93 13.25 37.25 15.57 37.25 21V27C37.25 32.43 34.93 34.75 29.5 34.75ZM23.5 14.75C18.89 14.75 17.25 16.39 17.25 21V27C17.25 31.61 18.89 33.25 23.5 33.25H29.5C34.11 33.25 35.75 31.61 35.75 27V21C35.75 16.39 34.11 14.75 29.5 14.75H23.5Z" fill="#CB65EF"/>
<path d="M28.2602 29.75H24.7302C23.6302 29.75 22.7602 29.21 22.2702 28.23L21.3802 26.44C21.1702 26.01 20.7402 25.75 20.2602 25.75H16.4902C16.0802 25.75 15.7402 25.41 15.7402 25C15.7402 24.59 16.0902 24.25 16.5002 24.25H20.2602C21.3102 24.25 22.2502 24.83 22.7202 25.77L23.6102 27.56C23.8402 28.02 24.2102 28.25 24.7302 28.25H28.2602C28.7402 28.25 29.1702 27.99 29.3802 27.56L30.2702 25.77C30.7402 24.83 31.6802 24.25 32.7302 24.25H36.4702C36.8802 24.25 37.2202 24.59 37.2202 25C37.2202 25.41 36.8802 25.75 36.4702 25.75H32.7302C32.2502 25.75 31.8202 26.01 31.6102 26.44L30.7202 28.23C30.2502 29.17 29.3102 29.75 28.2602 29.75Z" fill="#CB65EF"/>
<path d="M13 0H41V1C41 2.10457 40.1046 3 39 3H15C13.8954 3 13 2.10457 13 1V0Z" fill="#CB65EF"/>
</svg>
