<svg width="31" height="36" viewBox="0 0 31 36" fill="none" xmlns="http://www.w3.org/2000/svg">
<path d="M30.5 11.1875V28.0625C30.5 29.6445 29.2109 30.875 27.6875 30.875H3.3125C1.73047 30.875 0.5 29.6445 0.5 28.0625V11.1875C0.5 9.66406 1.73047 8.375 3.3125 8.375H8.46875L9.17188 6.5C9.58203 5.38672 10.6367 4.625 11.8086 4.625H19.1328C20.3047 4.625 21.3594 5.38672 21.7695 6.5L22.5312 8.375H27.6875C29.2109 8.375 30.5 9.66406 30.5 11.1875ZM22.5312 19.625C22.5312 15.7578 19.3672 12.5938 15.5 12.5938C11.5742 12.5938 8.46875 15.7578 8.46875 19.625C8.46875 23.5508 11.5742 26.6562 15.5 26.6562C19.3672 26.6562 22.5312 23.5508 22.5312 19.625ZM20.6562 19.625C20.6562 22.4961 18.3125 24.7812 15.5 24.7812C12.6289 24.7812 10.3438 22.4961 10.3438 19.625C10.3438 16.8125 12.6289 14.4688 15.5 14.4688C18.3125 14.4688 20.6562 16.8125 20.6562 19.625Z" fill="white"/>
</svg>
