<svg width="25" height="25" viewBox="0 0 25 25" fill="none" xmlns="http://www.w3.org/2000/svg">
<path d="M10.5 3.5H4.5C4.23478 3.5 3.98043 3.60536 3.79289 3.79289C3.60536 3.98043 3.5 4.23478 3.5 4.5V10.5C3.5 10.7652 3.60536 11.0196 3.79289 11.2071C3.98043 11.3946 4.23478 11.5 4.5 11.5H10.5C10.7652 11.5 11.0196 11.3946 11.2071 11.2071C11.3946 11.0196 11.5 10.7652 11.5 10.5V4.5C11.5 4.23478 11.3946 3.98043 11.2071 3.79289C11.0196 3.60536 10.7652 3.5 10.5 3.5Z" fill="#CE68F0"/>
<path d="M20.5 3.5H14.5C14.2348 3.5 13.9804 3.60536 13.7929 3.79289C13.6054 3.98043 13.5 4.23478 13.5 4.5V10.5C13.5 10.7652 13.6054 11.0196 13.7929 11.2071C13.9804 11.3946 14.2348 11.5 14.5 11.5H20.5C20.7652 11.5 21.0196 11.3946 21.2071 11.2071C21.3946 11.0196 21.5 10.7652 21.5 10.5V4.5C21.5 4.23478 21.3946 3.98043 21.2071 3.79289C21.0196 3.60536 20.7652 3.5 20.5 3.5Z" fill="#CE68F0"/>
<path d="M10.5 13.5H4.5C4.23478 13.5 3.98043 13.6054 3.79289 13.7929C3.60536 13.9804 3.5 14.2348 3.5 14.5V20.5C3.5 20.7652 3.60536 21.0196 3.79289 21.2071C3.98043 21.3946 4.23478 21.5 4.5 21.5H10.5C10.7652 21.5 11.0196 21.3946 11.2071 21.2071C11.3946 21.0196 11.5 20.7652 11.5 20.5V14.5C11.5 14.2348 11.3946 13.9804 11.2071 13.7929C11.0196 13.6054 10.7652 13.5 10.5 13.5Z" fill="#CE68F0"/>
<path d="M17.5 13.5C18.2826 13.5 19.048 13.7296 19.7014 14.1603C20.3549 14.591 20.8676 15.2039 21.1761 15.9232C21.4846 16.6424 21.5753 17.4363 21.4371 18.2066C21.2988 18.9769 20.9376 19.6898 20.3983 20.2568C19.8589 20.8239 19.165 21.2202 18.4026 21.3968C17.6402 21.5734 16.8427 21.5225 16.1089 21.2503C15.3752 20.9782 14.7374 20.4967 14.2745 19.8657C13.8117 19.2346 13.5441 18.4816 13.505 17.7L13.5 17.5L13.505 17.3C13.5563 16.275 13.9996 15.309 14.7432 14.6017C15.4868 13.8944 16.4738 13.5 17.5 13.5Z" fill="#CE68F0"/>
</svg>
