<svg width="21" height="19" viewBox="0 0 21 19" fill="none" xmlns="http://www.w3.org/2000/svg">
<path d="M4.31368 2.42068C8.21268 -0.344324 13.7817 -0.118324 17.3867 2.95568C21.0537 6.08468 21.5547 11.1937 18.5387 14.8537C15.6977 18.3007 10.5737 19.4367 6.30768 17.6587L6.07468 17.5577L1.70068 18.4887L1.66068 18.4947L1.62568 18.5017H1.60768L1.58568 18.5067H1.54768L1.51468 18.5107L1.49368 18.5097L1.47068 18.5107L1.43768 18.5077H1.40268L1.38068 18.5037L1.35868 18.5017L1.32368 18.4947L1.28968 18.4897L1.27368 18.4857L1.24968 18.4807L1.20068 18.4647L1.17668 18.4597L1.16568 18.4547L1.14368 18.4477L1.09868 18.4277L1.06868 18.4157L1.05768 18.4097L1.04368 18.4037L1.01268 18.3857L0.967676 18.3617L0.951676 18.3507L0.914676 18.3247L0.874676 18.2977L0.872676 18.2937L0.859676 18.2847L0.816676 18.2447L0.791676 18.2247L0.785676 18.2177L0.729676 18.1557L0.716676 18.1417L0.705676 18.1277L0.666676 18.0717L0.652676 18.0527L0.647676 18.0427L0.605676 17.9697L0.598676 17.9577L0.594676 17.9497L0.587676 17.9377L0.573676 17.8997L0.553676 17.8577L0.549676 17.8417L0.545676 17.8317L0.528676 17.7707L0.521676 17.7527L0.519676 17.7377L0.514676 17.7187L0.509676 17.6857L0.501676 17.6437L0.499676 17.6127L0.496676 17.6027V17.5867L0.492676 17.5327L0.493676 17.4967L0.494676 17.4737L0.496676 17.4207L0.500676 17.3957V17.3767L0.508676 17.3417L0.513676 17.3077L0.518676 17.2877L0.522676 17.2677L0.540676 17.2077L0.543676 17.1947L1.69368 13.7447L1.67168 13.7077C-0.538324 9.96068 0.462676 5.31668 4.08468 2.58868L4.31368 2.42068Z" fill="#6A6A6A"/>
<path d="M7.56086 6.1171C7.85915 6.11947 8.15745 6.17628 8.45574 6.28755C8.75404 6.39882 9.02629 6.58348 9.27251 6.84153C9.51872 7.09721 9.7164 7.44641 9.86555 7.88912C10.0147 8.33182 10.0893 8.88699 10.0893 9.5546C10.0893 10.2009 10.0277 10.775 9.90461 11.2769C9.78387 11.7764 9.60868 12.1978 9.37904 12.5411C9.15177 12.8844 8.87478 13.1448 8.54807 13.3224C8.22374 13.4999 7.85679 13.5887 7.44722 13.5887C7.04002 13.5887 6.67662 13.5082 6.35702 13.3472C6.03979 13.1839 5.77937 12.9578 5.57577 12.6689C5.37454 12.3778 5.24552 12.0404 5.1887 11.6569H6.05518C6.1333 11.9907 6.28837 12.2665 6.52037 12.4843C6.75475 12.6997 7.0637 12.8074 7.44722 12.8074C8.0083 12.8074 8.45101 12.5624 8.77535 12.0724C9.10205 11.5823 9.2654 10.8898 9.2654 9.99494H9.20859C9.07601 10.1938 8.91858 10.3654 8.73628 10.5099C8.55399 10.6543 8.35158 10.7655 8.12904 10.8437C7.9065 10.9218 7.66976 10.9608 7.41881 10.9608C7.00215 10.9608 6.61981 10.8579 6.2718 10.6519C5.92615 10.4436 5.64916 10.1583 5.44083 9.79608C5.23486 9.43149 5.13188 9.01483 5.13188 8.54608C5.13188 8.101 5.23131 7.6938 5.43018 7.32448C5.63141 6.9528 5.91313 6.65687 6.27535 6.4367C6.63993 6.21653 7.06843 6.11 7.56086 6.1171ZM7.56086 6.89835C7.26256 6.89835 6.99386 6.97292 6.75475 7.12207C6.51801 7.26885 6.3298 7.46771 6.19012 7.71866C6.05281 7.96724 5.98415 8.24305 5.98415 8.54608C5.98415 8.84911 6.05044 9.12491 6.18302 9.37349C6.31796 9.6197 6.50144 9.8162 6.73344 9.96298C6.96782 10.1074 7.23415 10.1796 7.53245 10.1796C7.75735 10.1796 7.96687 10.1358 8.161 10.0482C8.35513 9.95824 8.5244 9.83632 8.66881 9.68244C8.81559 9.52619 8.93041 9.34982 9.01327 9.15332C9.09613 8.95446 9.13756 8.74731 9.13756 8.53187C9.13756 8.24778 9.06891 7.98144 8.9316 7.73287C8.79665 7.48429 8.60963 7.28306 8.37052 7.12917C8.13377 6.97529 7.86389 6.89835 7.56086 6.89835ZM13.6306 12.2108V7.52335H14.4261V12.2108H13.6306ZM11.6846 10.2648V9.46937H16.3721V10.2648H11.6846Z" fill="#C2C2C2"/>
</svg>
