<svg width="64" height="64" viewBox="0 0 64 64" fill="none" xmlns="http://www.w3.org/2000/svg">
<rect x="2" y="2" width="60" height="60" rx="30" fill="#FACC15"/>
<rect x="2" y="2" width="60" height="60" rx="30" stroke="#F3F4F6" stroke-width="4"/>
<path d="M30.1758 17.8047C30.8789 16.3984 32.8711 16.457 33.5156 17.8047L37.3828 25.5977L45.9375 26.8281C47.4609 27.0625 48.0469 28.9375 46.9336 30.0508L40.7812 36.0859L42.2461 44.582C42.4805 46.1055 40.8398 47.2773 39.4922 46.5742L31.875 42.5312L24.1992 46.5742C22.8516 47.2773 21.2109 46.1055 21.4453 44.582L22.9102 36.0859L16.7578 30.0508C15.6445 28.9375 16.2305 27.0625 17.7539 26.8281L26.3672 25.5977L30.1758 17.8047Z" fill="white"/>
</svg>
