<svg width="20" height="15" viewBox="0 0 20 15" fill="none" xmlns="http://www.w3.org/2000/svg">
<path d="M3 11.8516C4.12109 12.6445 6.17188 13 8.25 13C10.3008 13 12.3516 12.6445 13.5 11.8516V13C13.5 13.9844 11.1484 14.75 8.25 14.75C5.35156 14.75 3 13.9844 3 13V11.8516ZM11.75 4.25C8.85156 4.25 6.5 3.48438 6.5 2.5C6.5 1.54297 8.85156 0.75 11.75 0.75C14.6484 0.75 17 1.54297 17 2.5C17 3.48438 14.6484 4.25 11.75 4.25ZM3 8.98047C4.12109 9.91016 6.17188 10.375 8.25 10.375C10.3008 10.375 12.3516 9.91016 13.5 8.98047V10.375C13.5 11.3594 11.1484 12.125 8.25 12.125C5.35156 12.125 3 11.3594 3 10.375V8.98047ZM14.375 9.28125V7.53125C15.4141 7.33984 16.3438 7.03906 17 6.60156V7.75C17 8.40625 15.9336 8.98047 14.375 9.28125ZM8.25 5.125C11.1484 5.125 13.5 6.10938 13.5 7.3125C13.5 8.54297 11.1484 9.5 8.25 9.5C5.35156 9.5 3 8.54297 3 7.3125C3 6.10938 5.35156 5.125 8.25 5.125ZM14.2383 6.68359C13.9922 6.02734 13.3906 5.50781 12.5977 5.125C14.3477 5.01562 16.0156 4.66016 17 3.97656V5.125C17 5.80859 15.8789 6.38281 14.2383 6.68359Z" fill="#374151"/>
</svg>
