<svg width="14" height="15" viewBox="0 0 14 15" fill="none" xmlns="http://www.w3.org/2000/svg">
<path d="M12.6875 1.625C12.9062 1.625 13.125 1.84375 13.125 2.0625V2.9375C13.125 3.18359 12.9062 3.375 12.6875 3.375H1.3125C1.06641 3.375 0.875 3.18359 0.875 2.9375V2.0625C0.875 1.84375 1.06641 1.625 1.3125 1.625H4.59375L4.83984 1.13281C4.94922 0.914062 5.16797 0.75 5.41406 0.75H8.55859C8.80469 0.75 9.02344 0.914062 9.13281 1.13281L9.40625 1.625H12.6875ZM2.32422 13.5195L1.75 4.25H12.25L11.6484 13.5195C11.6211 14.2305 11.0469 14.75 10.3359 14.75H3.63672C2.92578 14.75 2.35156 14.2305 2.32422 13.5195Z" fill="#FF4D4D"/>
</svg>
