<svg width="21" height="20" viewBox="0 0 21 20" fill="none" xmlns="http://www.w3.org/2000/svg">
<rect x="0.5" width="20" height="20" rx="10" fill="#FACC15"/>
<path d="M14.1946 12.144C14.1946 12.6573 14.0592 13.1333 13.7886 13.572C13.5272 14.0013 13.1352 14.356 12.6126 14.636C12.0992 14.9067 11.4879 15.056 10.7786 15.084V16.218H9.88258V15.07C8.89324 14.986 8.09524 14.692 7.48858 14.188C6.88191 13.6747 6.55991 12.9793 6.52258 12.102H9.07058C9.12658 12.662 9.39725 13.0213 9.88258 13.18V10.968C9.15458 10.7813 8.57125 10.5993 8.13258 10.422C7.70324 10.2447 7.32524 9.96 6.99858 9.568C6.67191 9.176 6.50858 8.63933 6.50858 7.958C6.50858 7.10867 6.82124 6.42733 7.44658 5.914C8.08124 5.40067 8.89324 5.11133 9.88258 5.046V3.912H10.7786V5.046C11.7586 5.12067 12.5332 5.40533 13.1026 5.9C13.6719 6.39467 13.9892 7.08067 14.0546 7.958H11.4926C11.4366 7.454 11.1986 7.12733 10.7786 6.978V9.148C11.5532 9.36267 12.1506 9.554 12.5706 9.722C12.9906 9.89 13.3639 10.17 13.6906 10.562C14.0266 10.9447 14.1946 11.472 14.1946 12.144ZM9.04258 7.846C9.04258 8.07933 9.11258 8.27533 9.25258 8.434C9.40191 8.59267 9.61191 8.73267 9.88258 8.854V6.908C9.62124 6.95467 9.41591 7.05733 9.26658 7.216C9.11724 7.36533 9.04258 7.57533 9.04258 7.846ZM10.7786 13.222C11.0586 13.1753 11.2779 13.0633 11.4366 12.886C11.6046 12.7087 11.6886 12.4893 11.6886 12.228C11.6886 11.9853 11.6092 11.7893 11.4506 11.64C11.3012 11.4813 11.0772 11.346 10.7786 11.234V13.222Z" fill="black"/>
</svg>
