<svg width="20" height="14" viewBox="0 0 20 14" fill="none" xmlns="http://www.w3.org/2000/svg">
<path d="M17.7656 6.36719C17.8203 6.47656 17.8477 6.61328 17.8477 6.77734C17.8477 6.91406 17.8203 7.05078 17.7656 7.16016C16.2891 10.0586 13.3359 12 10 12C6.63672 12 3.68359 10.0586 2.20703 7.16016C2.15234 7.05078 2.125 6.91406 2.125 6.75C2.125 6.61328 2.15234 6.47656 2.20703 6.36719C3.68359 3.46875 6.63672 1.5 10 1.5C13.3359 1.5 16.2891 3.46875 17.7656 6.36719ZM10 10.6875V10.7148C12.1602 10.7148 13.9375 8.9375 13.9375 6.77734V6.75C13.9375 4.58984 12.1602 2.8125 10 2.8125C7.8125 2.8125 6.0625 4.58984 6.0625 6.75C6.0625 8.9375 7.8125 10.6875 10 10.6875ZM10 4.125V4.15234C11.4492 4.15234 12.625 5.30078 12.625 6.75C12.625 8.19922 11.4492 9.375 10 9.375C8.55078 9.375 7.375 8.19922 7.375 6.75C7.375 6.53125 7.40234 6.28516 7.45703 6.06641C7.67578 6.23047 7.94922 6.3125 8.25 6.3125C8.96094 6.3125 9.53516 5.73828 9.53516 5.02734C9.53516 4.72656 9.45312 4.45312 9.28906 4.23438C9.50781 4.17969 9.75391 4.15234 10 4.125Z" fill="#374151"/>
</svg>
