<svg width="39" height="39" viewBox="0 0 39 39" fill="none" xmlns="http://www.w3.org/2000/svg">
<path d="M17.5 10.5H11.5C11.2348 10.5 10.9804 10.6054 10.7929 10.7929C10.6054 10.9804 10.5 11.2348 10.5 11.5V17.5C10.5 17.7652 10.6054 18.0196 10.7929 18.2071C10.9804 18.3946 11.2348 18.5 11.5 18.5H17.5C17.7652 18.5 18.0196 18.3946 18.2071 18.2071C18.3946 18.0196 18.5 17.7652 18.5 17.5V11.5C18.5 11.2348 18.3946 10.9804 18.2071 10.7929C18.0196 10.6054 17.7652 10.5 17.5 10.5Z" fill="#6A6A6A"/>
<path d="M27.5 10.5H21.5C21.2348 10.5 20.9804 10.6054 20.7929 10.7929C20.6054 10.9804 20.5 11.2348 20.5 11.5V17.5C20.5 17.7652 20.6054 18.0196 20.7929 18.2071C20.9804 18.3946 21.2348 18.5 21.5 18.5H27.5C27.7652 18.5 28.0196 18.3946 28.2071 18.2071C28.3946 18.0196 28.5 17.7652 28.5 17.5V11.5C28.5 11.2348 28.3946 10.9804 28.2071 10.7929C28.0196 10.6054 27.7652 10.5 27.5 10.5Z" fill="#6A6A6A"/>
<path d="M17.5 20.5H11.5C11.2348 20.5 10.9804 20.6054 10.7929 20.7929C10.6054 20.9804 10.5 21.2348 10.5 21.5V27.5C10.5 27.7652 10.6054 28.0196 10.7929 28.2071C10.9804 28.3946 11.2348 28.5 11.5 28.5H17.5C17.7652 28.5 18.0196 28.3946 18.2071 28.2071C18.3946 28.0196 18.5 27.7652 18.5 27.5V21.5C18.5 21.2348 18.3946 20.9804 18.2071 20.7929C18.0196 20.6054 17.7652 20.5 17.5 20.5Z" fill="#6A6A6A"/>
<path d="M24.5 20.5C25.2826 20.5 26.048 20.7296 26.7014 21.1603C27.3549 21.591 27.8676 22.2039 28.1761 22.9232C28.4846 23.6424 28.5753 24.4363 28.4371 25.2066C28.2988 25.9769 27.9376 26.6898 27.3983 27.2568C26.8589 27.8239 26.165 28.2202 25.4026 28.3968C24.6402 28.5734 23.8427 28.5225 23.1089 28.2503C22.3752 27.9782 21.7374 27.4967 21.2745 26.8657C20.8117 26.2346 20.5441 25.4816 20.505 24.7L20.5 24.5L20.505 24.3C20.5563 23.275 20.9996 22.309 21.7432 21.6017C22.4868 20.8944 23.4738 20.5 24.5 20.5Z" fill="#6A6A6A"/>
</svg>
