<svg width="53" height="44" viewBox="0 0 53 44" fill="none" xmlns="http://www.w3.org/2000/svg">
<path d="M26.5 30.75C26.09 30.75 25.75 30.41 25.75 30V27C25.75 26.59 26.09 26.25 26.5 26.25C26.91 26.25 27.25 26.59 27.25 27V30C27.25 30.41 26.91 30.75 26.5 30.75Z" fill="#CB65EF"/>
<path d="M32.1 34.5601H20.9C19.08 34.5601 17.42 33.1601 17.12 31.3701L15.79 23.4001C15.57 22.1601 16.18 20.5701 17.17 19.7801L24.1 14.2301C25.44 13.1501 27.55 13.1601 28.9 14.2401L35.83 19.7801C36.81 20.5701 37.41 22.1601 37.21 23.4001L35.88 31.3601C35.58 33.1301 33.88 34.5601 32.1 34.5601ZM26.49 14.9301C25.96 14.9301 25.43 15.0901 25.04 15.4001L18.11 20.9601C17.55 21.4101 17.15 22.4501 17.27 23.1601L18.6 31.1201C18.78 32.1701 19.83 33.0601 20.9 33.0601H32.1C33.17 33.0601 34.22 32.1701 34.4 31.1101L35.73 23.1501C35.84 22.4501 35.44 21.3901 34.89 20.9501L27.96 15.4101C27.56 15.0901 27.02 14.9301 26.49 14.9301Z" fill="#CB65EF"/>
<path d="M13 0H41V1C41 2.10457 40.1046 3 39 3H15C13.8954 3 13 2.10457 13 1V0Z" fill="#CB65EF"/>
</svg>
