<svg width="20" height="14" viewBox="0 0 20 14" fill="none" xmlns="http://www.w3.org/2000/svg">
<path d="M5.40625 6.23047L5.70703 7.24219H4.64062L4.96875 6.23047C5.05078 5.90234 5.16016 5.30078 5.16016 5.30078H5.1875C5.1875 5.30078 5.29688 5.90234 5.40625 6.23047ZM18.0938 2.375C18.4492 2.375 18.75 2.67578 18.75 3.03125V10.4688C18.75 10.8516 18.4492 11.125 18.0938 11.125H10.4375V2.375H18.0938ZM17.4375 5.65625V5.21875C17.4375 5.05469 17.2734 4.89062 17.1094 4.89062H15.3594V4.45312C15.3594 4.28906 15.1953 4.125 15.0312 4.125H14.5938C14.4023 4.125 14.2656 4.28906 14.2656 4.45312V4.89062H12.5156C12.3242 4.89062 12.1875 5.05469 12.1875 5.21875V5.65625C12.1875 5.84766 12.3242 5.98438 12.5156 5.98438H15.6328C15.4688 6.39453 15.168 6.77734 14.8125 7.1875C14.6211 6.99609 14.457 6.80469 14.3203 6.61328C14.2383 6.47656 14.0469 6.42188 13.8828 6.50391L13.6914 6.64062L13.5273 6.75C13.3633 6.83203 13.3086 7.05078 13.418 7.21484C13.582 7.43359 13.7734 7.67969 13.9922 7.89844C13.7734 8.08984 13.5273 8.25391 13.2812 8.39062C13.1172 8.5 13.0625 8.69141 13.1719 8.85547L13.3906 9.21094C13.4727 9.375 13.6641 9.42969 13.8281 9.34766C14.1836 9.12891 14.5117 8.91016 14.8125 8.66406C15.1133 8.91016 15.4141 9.12891 15.7695 9.34766C15.9336 9.42969 16.125 9.375 16.2344 9.21094L16.4531 8.85547C16.5352 8.69141 16.4805 8.5 16.3438 8.39062C16.0977 8.25391 15.8516 8.08984 15.6055 7.89844C16.1797 7.29688 16.5898 6.64062 16.7812 5.98438H17.1094C17.2734 5.98438 17.4375 5.84766 17.4375 5.65625ZM1.25 3.03125C1.25 2.67578 1.52344 2.375 1.90625 2.375H9.5625V11.125H1.90625C1.52344 11.125 1.25 10.8516 1.25 10.4688V3.03125ZM2.83594 8.96484C2.78125 9.15625 2.94531 9.375 3.16406 9.375H3.79297C3.92969 9.375 4.06641 9.29297 4.09375 9.15625L4.33984 8.28125H6.00781L6.25391 9.15625C6.28125 9.29297 6.41797 9.375 6.55469 9.375H7.18359C7.42969 9.375 7.56641 9.15625 7.51172 8.96484L5.92578 4.31641C5.89844 4.20703 5.76172 4.09766 5.625 4.09766H4.72266C4.58594 4.09766 4.47656 4.20703 4.42188 4.31641L2.83594 8.96484Z" fill="#374151"/>
</svg>
