<svg width="39" height="39" viewBox="0 0 39 39" fill="none" xmlns="http://www.w3.org/2000/svg">
<g clip-path="url(#clip0_154_525)">
<path opacity="0.5" fill-rule="evenodd" clip-rule="evenodd" d="M19.5 29.5C25.023 29.5 29.5 25.023 29.5 19.5C29.5 13.977 25.023 9.5 19.5 9.5C13.977 9.5 9.5 13.977 9.5 19.5C9.5 25.023 13.977 29.5 19.5 29.5ZM31.5 19.5C31.5 26.127 26.127 31.5 19.5 31.5C12.873 31.5 7.5 26.127 7.5 19.5C7.5 12.873 12.873 7.5 19.5 7.5C26.127 7.5 31.5 12.873 31.5 19.5Z" fill="#6A6A6A"/>
<path d="M19.5 24.5C20.8261 24.5 22.0979 23.9732 23.0355 23.0355C23.9732 22.0979 24.5 20.8261 24.5 19.5C24.5 18.1739 23.9732 16.9021 23.0355 15.9645C22.0979 15.0268 20.8261 14.5 19.5 14.5C18.1739 14.5 16.9021 15.0268 15.9645 15.9645C15.0268 16.9021 14.5 18.1739 14.5 19.5C14.5 20.8261 15.0268 22.0979 15.9645 23.0355C16.9021 23.9732 18.1739 24.5 19.5 24.5Z" fill="#713C3C"/>
</g>
<defs>
<clipPath id="clip0_154_525">
<rect width="24" height="24" fill="white" transform="translate(7.5 7.5)"/>
</clipPath>
</defs>
</svg>
