<svg width="25" height="25" viewBox="0 0 25 25" fill="none" xmlns="http://www.w3.org/2000/svg">
<g clip-path="url(#clip0_232_643)">
<path opacity="0.5" fill-rule="evenodd" clip-rule="evenodd" d="M12.5 22.5C18.023 22.5 22.5 18.023 22.5 12.5C22.5 6.977 18.023 2.5 12.5 2.5C6.977 2.5 2.5 6.977 2.5 12.5C2.5 18.023 6.977 22.5 12.5 22.5ZM24.5 12.5C24.5 19.127 19.127 24.5 12.5 24.5C5.873 24.5 0.5 19.127 0.5 12.5C0.5 5.873 5.873 0.5 12.5 0.5C19.127 0.5 24.5 5.873 24.5 12.5Z" fill="#6A6A6A"/>
<path d="M12.5 17.5C13.8261 17.5 15.0979 16.9732 16.0355 16.0355C16.9732 15.0979 17.5 13.8261 17.5 12.5C17.5 11.1739 16.9732 9.90215 16.0355 8.96447C15.0979 8.02678 13.8261 7.5 12.5 7.5C11.1739 7.5 9.90215 8.02678 8.96447 8.96447C8.02678 9.90215 7.5 11.1739 7.5 12.5C7.5 13.8261 8.02678 15.0979 8.96447 16.0355C9.90215 16.9732 11.1739 17.5 12.5 17.5Z" fill="#713C3C"/>
</g>
<defs>
<clipPath id="clip0_232_643">
<rect width="24" height="24" fill="white" transform="translate(0.5 0.5)"/>
</clipPath>
</defs>
</svg>
