<svg width="20" height="20" viewBox="0 0 20 20" fill="none" xmlns="http://www.w3.org/2000/svg">
<g clip-path="url(#clip0_86_671)">
<path opacity="0.5" fill-rule="evenodd" clip-rule="evenodd" d="M10 18.3333C14.6025 18.3333 18.3333 14.6025 18.3333 10C18.3333 5.3975 14.6025 1.66667 10 1.66667C5.3975 1.66667 1.66667 5.3975 1.66667 10C1.66667 14.6025 5.3975 18.3333 10 18.3333ZM20 10C20 15.5225 15.5225 20 10 20C4.4775 20 0 15.5225 0 10C0 4.4775 4.4775 0 10 0C15.5225 0 20 4.4775 20 10Z" fill="black"/>
<path d="M10 14.1666C11.1051 14.1666 12.1649 13.7276 12.9463 12.9462C13.7277 12.1648 14.1667 11.105 14.1667 9.99992C14.1667 8.89485 13.7277 7.83504 12.9463 7.05364C12.1649 6.27224 11.1051 5.83325 10 5.83325C8.89494 5.83325 7.83513 6.27224 7.05373 7.05364C6.27233 7.83504 5.83334 8.89485 5.83334 9.99992C5.83334 11.105 6.27233 12.1648 7.05373 12.9462C7.83513 13.7276 8.89494 14.1666 10 14.1666Z" fill="#FC5856"/>
</g>
<defs>
<clipPath id="clip0_86_671">
<rect width="20" height="20" fill="white"/>
</clipPath>
</defs>
</svg>
