<svg width="25" height="24" viewBox="0 0 25 24" fill="none" xmlns="http://www.w3.org/2000/svg">
<g clip-path="url(#clip0_89_544)">
<path opacity="0.5" fill-rule="evenodd" clip-rule="evenodd" d="M12.5 22C18.023 22 22.5 17.523 22.5 12C22.5 6.477 18.023 2 12.5 2C6.977 2 2.5 6.477 2.5 12C2.5 17.523 6.977 22 12.5 22ZM24.5 12C24.5 18.627 19.127 24 12.5 24C5.873 24 0.5 18.627 0.5 12C0.5 5.373 5.873 0 12.5 0C19.127 0 24.5 5.373 24.5 12Z" fill="white"/>
<path d="M12.5 17C13.8261 17 15.0979 16.4732 16.0355 15.5355C16.9732 14.5979 17.5 13.3261 17.5 12C17.5 10.6739 16.9732 9.40215 16.0355 8.46447C15.0979 7.52678 13.8261 7 12.5 7C11.1739 7 9.90215 7.52678 8.96447 8.46447C8.02678 9.40215 7.5 10.6739 7.5 12C7.5 13.3261 8.02678 14.5979 8.96447 15.5355C9.90215 16.4732 11.1739 17 12.5 17Z" fill="#808080"/>
</g>
<defs>
<clipPath id="clip0_89_544">
<rect width="24" height="24" fill="white" transform="translate(0.5)"/>
</clipPath>
</defs>
</svg>
