<svg width="53" height="44" viewBox="0 0 53 44" fill="none" xmlns="http://www.w3.org/2000/svg">
<g clip-path="url(#clip0_89_615)">
<path opacity="0.5" fill-rule="evenodd" clip-rule="evenodd" d="M26.5 34C32.023 34 36.5 29.523 36.5 24C36.5 18.477 32.023 14 26.5 14C20.977 14 16.5 18.477 16.5 24C16.5 29.523 20.977 34 26.5 34ZM38.5 24C38.5 30.627 33.127 36 26.5 36C19.873 36 14.5 30.627 14.5 24C14.5 17.373 19.873 12 26.5 12C33.127 12 38.5 17.373 38.5 24Z" fill="#CB65EF"/>
<path d="M26.5 29C27.8261 29 29.0979 28.4732 30.0355 27.5355C30.9732 26.5979 31.5 25.3261 31.5 24C31.5 22.6739 30.9732 21.4021 30.0355 20.4645C29.0979 19.5268 27.8261 19 26.5 19C25.1739 19 23.9021 19.5268 22.9645 20.4645C22.0268 21.4021 21.5 22.6739 21.5 24C21.5 25.3261 22.0268 26.5979 22.9645 27.5355C23.9021 28.4732 25.1739 29 26.5 29Z" fill="#CB65EF"/>
</g>
<path d="M13 0H41V1C41 2.10457 40.1046 3 39 3H15C13.8954 3 13 2.10457 13 1V0Z" fill="#CB65EF"/>
<defs>
<clipPath id="clip0_89_615">
<rect width="24" height="24" fill="white" transform="translate(14.5 12)"/>
</clipPath>
</defs>
</svg>
