<svg width="14" height="15" viewBox="0 0 14 15" fill="none" xmlns="http://www.w3.org/2000/svg">
<path d="M9.12915 12.9892C8.87831 12.9892 8.62748 12.9367 8.42332 12.8375L5.36082 11.3034C5.18581 11.2159 4.84165 11.2217 4.67248 11.3209L3.29582 12.1084C2.70082 12.4467 2.08832 12.4934 1.62748 12.2192C1.16082 11.9509 0.898315 11.4025 0.898315 10.7142V5.0442C0.898315 4.51336 1.24832 3.91253 1.70915 3.65003L4.23498 2.20336C4.66082 1.95836 5.30832 1.94086 5.74582 2.16253L8.80832 3.6967C8.98332 3.7842 9.32165 3.77253 9.49665 3.6792L10.8675 2.89753C11.4625 2.5592 12.075 2.51253 12.5358 2.7867C13.0025 3.05503 13.265 3.60336 13.265 4.2917V9.96753C13.265 10.4984 12.915 11.0992 12.4541 11.3617L9.92832 12.8084C9.70665 12.925 9.41498 12.9892 9.12915 12.9892ZM5.03998 10.37C5.29082 10.37 5.54165 10.4225 5.74582 10.5217L8.80832 12.0559C8.98332 12.1434 9.32165 12.1317 9.49665 12.0384L12.0225 10.5917C12.2091 10.4867 12.39 10.1717 12.39 9.9617V4.28586C12.39 3.91836 12.285 3.6442 12.0925 3.5392C11.9058 3.4342 11.6141 3.47503 11.2991 3.65586L9.92832 4.43753C9.50248 4.68253 8.85498 4.70003 8.41748 4.47836L5.35498 2.9442C5.17998 2.8567 4.84165 2.86836 4.66665 2.9617L2.14082 4.40836C1.95415 4.51336 1.77332 4.82836 1.77332 5.0442V10.72C1.77332 11.0875 1.87832 11.3617 2.06498 11.4667C2.25165 11.5775 2.54332 11.5309 2.86415 11.35L4.23498 10.5684C4.46248 10.4342 4.75415 10.37 5.03998 10.37Z" fill="#B6B6B6"/>
<path d="M4.99329 10.8541C4.75412 10.8541 4.55579 10.6558 4.55579 10.4166V2.83331C4.55579 2.59415 4.75412 2.39581 4.99329 2.39581C5.23245 2.39581 5.43079 2.59415 5.43079 2.83331V10.4166C5.43079 10.6558 5.23245 10.8541 4.99329 10.8541Z" fill="#B6B6B6"/>
<path d="M9.17578 12.6042C8.93661 12.6042 8.73828 12.4059 8.73828 12.1667V4.36169C8.73828 4.12253 8.93661 3.92419 9.17578 3.92419C9.41495 3.92419 9.61328 4.12253 9.61328 4.36169V12.1667C9.61328 12.4059 9.41495 12.6042 9.17578 12.6042Z" fill="#B6B6B6"/>
</svg>
