<svg width="20" height="14" viewBox="0 0 20 14" fill="none" xmlns="http://www.w3.org/2000/svg">
<path d="M10 0.625C13.8555 0.625 17 3.19531 17 6.3125C17 9.45703 13.8555 12 10 12C8.93359 12 7.94922 11.8086 7.04688 11.4805C6.39062 12.0273 5.02344 12.875 3.21875 12.875C3.10938 12.875 3.05469 12.8477 3 12.7656C2.97266 12.6836 3 12.5742 3.05469 12.5195C3.05469 12.4922 4.20312 11.2891 4.55859 9.89453C3.57422 8.91016 3 7.67969 3 6.3125C3 3.19531 6.11719 0.625 10 0.625ZM6.5 7.1875C6.96484 7.1875 7.375 6.80469 7.375 6.3125C7.375 5.84766 6.96484 5.4375 6.5 5.4375C6.00781 5.4375 5.625 5.84766 5.625 6.3125C5.625 6.80469 6.00781 7.1875 6.5 7.1875ZM10 7.1875C10.4648 7.1875 10.875 6.80469 10.875 6.3125C10.875 5.84766 10.4648 5.4375 10 5.4375C9.50781 5.4375 9.125 5.84766 9.125 6.3125C9.125 6.80469 9.50781 7.1875 10 7.1875ZM13.5 7.1875C13.9648 7.1875 14.375 6.80469 14.375 6.3125C14.375 5.84766 13.9648 5.4375 13.5 5.4375C13.0078 5.4375 12.625 5.84766 12.625 6.3125C12.625 6.80469 13.0078 7.1875 13.5 7.1875Z" fill="#374151"/>
</svg>
