<svg width="18" height="15" viewBox="0 0 18 15" fill="none" xmlns="http://www.w3.org/2000/svg">
<path d="M17.5586 13.3008C17.75 13.4375 17.8047 13.7109 17.6406 13.9023L17.1211 14.5859C16.957 14.7773 16.6836 14.832 16.4922 14.668L0.414062 2.22656C0.222656 2.08984 0.167969 1.81641 0.332031 1.625L0.878906 0.941406C1.01562 0.75 1.28906 0.695312 1.48047 0.859375L6.375 4.63281V3.375C6.375 1.92578 7.52344 0.75 9 0.75C10.4492 0.75 11.625 1.92578 11.625 3.375V7.77734C11.625 8.05078 11.543 8.32422 11.4609 8.57031L12.1992 9.14453C12.3906 8.70703 12.5 8.24219 12.5 7.75V6.4375C12.5 6.21875 12.6914 6 12.9375 6H13.375C13.5938 6 13.8125 6.21875 13.8125 6.4375V7.75C13.8125 8.57031 13.5938 9.30859 13.2656 9.96484L17.5586 13.3008ZM11.1875 13.4375C11.4062 13.4375 11.625 13.6562 11.625 13.875V14.3125C11.625 14.5586 11.4062 14.75 11.1875 14.75H6.8125C6.56641 14.75 6.375 14.5586 6.375 14.3125V13.875C6.375 13.6562 6.56641 13.4375 6.8125 13.4375H8.34375V12.5078C5.91016 12.1797 4.1875 9.99219 4.1875 7.55859V7.36719L5.60938 8.46094C5.9375 9.91016 7.11328 11.0859 8.64453 11.25C8.83594 11.2773 9 11.25 9.19141 11.25L10.5586 12.2891C10.2578 12.3984 9.95703 12.4805 9.65625 12.5352V13.4375H11.1875Z" fill="#555555"/>
</svg>
