<svg width="10" height="18" viewBox="0 0 10 18" fill="none" xmlns="http://www.w3.org/2000/svg">
<path d="M9.33643 7.02136C9.70259 7.02136 10.0002 7.3166 10.0005 7.68054V10.3182C10.0005 12.6437 8.27028 14.5658 6.02002 14.8856V16.2528H8.01025C8.37642 16.2529 8.67318 16.548 8.67334 16.912C8.67334 17.2761 8.37652 17.5711 8.01025 17.5712H2.70361C2.3375 17.5709 2.04053 17.276 2.04053 16.912C2.04069 16.5481 2.3376 16.253 2.70361 16.2528H4.69385V14.8856C2.44386 14.5656 0.714355 12.6435 0.714355 10.3182V7.68054C0.714594 7.31666 1.01136 7.02146 1.37744 7.02136C1.74361 7.02136 2.04029 7.3166 2.04053 7.68054V10.3182C2.04053 12.1391 3.52531 13.615 5.35693 13.6151C7.18868 13.6151 8.67334 12.1391 8.67334 10.3182V7.68054C8.67358 7.31673 8.97044 7.02157 9.33643 7.02136ZM5.35693 0.428589C6.4558 0.428589 7.34691 1.31382 7.34717 2.40613V10.3182C7.34717 11.4108 6.45596 12.2968 5.35693 12.2968C4.25802 12.2966 3.36768 11.4107 3.36768 10.3182V2.40613C3.36794 1.31391 4.25818 0.428728 5.35693 0.428589Z" fill="white"/>
</svg>
