<svg width="30" height="28" viewBox="0 0 30 28" fill="none" xmlns="http://www.w3.org/2000/svg">
<path d="M15.0003 5.12967L13.6558 3.75395C10.5001 0.524622 4.7137 1.63902 2.62488 5.69901C1.64423 7.6086 1.42297 10.3657 3.21365 13.8843C4.9387 17.2723 8.52756 21.3304 15.0003 25.7507C21.473 21.3304 25.0599 17.2723 26.7869 13.8843C28.5775 10.3638 28.3582 7.6086 27.3756 5.69901C25.2868 1.63902 19.5004 0.522756 16.3447 3.75208L15.0003 5.12967ZM15.0003 28C-13.75 9.08699 6.14812 -5.67456 14.6702 2.13368C14.7828 2.23697 14.8928 2.34337 15.0003 2.45288C15.1059 2.34268 15.216 2.23682 15.3303 2.13555C23.8505 -5.67829 43.7505 9.08513 15.0003 28Z" fill="#CE68F0"/>
</svg>
