<svg width="18" height="20" viewBox="0 0 18 20" fill="none" xmlns="http://www.w3.org/2000/svg">
<path d="M2.625 8.875C1.64062 8.875 0.875 8.10938 0.875 7.125C0.875 6.16797 1.64062 5.375 2.625 5.375C3.58203 5.375 4.375 6.16797 4.375 7.125C4.375 8.10938 3.58203 8.875 2.625 8.875ZM14.875 8.875C13.8906 8.875 13.125 8.10938 13.125 7.125C13.125 6.16797 13.8906 5.375 14.875 5.375C15.832 5.375 16.625 6.16797 16.625 7.125C16.625 8.10938 15.832 8.875 14.875 8.875ZM15.75 9.75C16.707 9.75 17.5 10.543 17.5 11.5V12.375C17.5 12.8672 17.0898 13.25 16.625 13.25H14.8203C14.6289 11.9648 13.8633 10.8711 12.7422 10.2695C13.0703 9.96875 13.5078 9.75 14 9.75H15.75ZM8.75 9.75C7.05469 9.75 5.6875 8.38281 5.6875 6.6875C5.6875 5.01953 7.05469 3.625 8.75 3.625C10.418 3.625 11.8125 5.01953 11.8125 6.6875C11.8125 8.38281 10.418 9.75 8.75 9.75ZM10.8281 10.625C12.5781 10.625 14 12.0469 14 13.7969V14.5625C14 15.3008 13.3984 15.875 12.6875 15.875H4.8125C4.07422 15.875 3.5 15.3008 3.5 14.5625V13.7969C3.5 12.0469 4.89453 10.625 6.64453 10.625H6.86328C7.4375 10.8984 8.06641 11.0625 8.75 11.0625C9.40625 11.0625 10.0352 10.8984 10.6094 10.625H10.8281ZM4.73047 10.2695C3.60938 10.8711 2.84375 11.9648 2.65234 13.25H0.875C0.382812 13.25 0 12.8672 0 12.375V11.5C0 10.543 0.765625 9.75 1.75 9.75H3.5C3.96484 9.75 4.40234 9.96875 4.73047 10.2695Z" fill="white"/>
</svg>
