<svg width="39" height="39" viewBox="0 0 39 39" fill="none" xmlns="http://www.w3.org/2000/svg">
<path d="M13.3138 12.4207C17.2128 9.65574 22.7818 9.88174 26.3868 12.9557C30.0538 16.0847 30.5548 21.1937 27.5388 24.8537C24.6978 28.3007 19.5738 29.4367 15.3078 27.6587L15.0748 27.5577L10.7008 28.4887L10.6608 28.4947L10.6258 28.5017H10.6078L10.5858 28.5067H10.5478L10.5148 28.5107L10.4938 28.5097L10.4708 28.5107L10.4378 28.5077H10.4028L10.3808 28.5037L10.3588 28.5017L10.3238 28.4947L10.2898 28.4897L10.2738 28.4857L10.2498 28.4807L10.2008 28.4647L10.1768 28.4597L10.1658 28.4547L10.1438 28.4477L10.0988 28.4277L10.0688 28.4157L10.0578 28.4097L10.0438 28.4037L10.0128 28.3857L9.9678 28.3617L9.9518 28.3507L9.9148 28.3247L9.8748 28.2977L9.8728 28.2937L9.8598 28.2847L9.8168 28.2447L9.7918 28.2247L9.7858 28.2177L9.7298 28.1557L9.7168 28.1417L9.7058 28.1277L9.6668 28.0717L9.6528 28.0527L9.6478 28.0427L9.6058 27.9697L9.5988 27.9577L9.5948 27.9497L9.5878 27.9377L9.5738 27.8997L9.5538 27.8577L9.5498 27.8417L9.5458 27.8317L9.5288 27.7707L9.5218 27.7527L9.5198 27.7377L9.5148 27.7187L9.5098 27.6857L9.5018 27.6437L9.4998 27.6127L9.4968 27.6027V27.5867L9.4928 27.5327L9.4938 27.4967L9.4948 27.4737L9.4968 27.4207L9.5008 27.3957V27.3767L9.5088 27.3417L9.5138 27.3077L9.5188 27.2877L9.5228 27.2677L9.5408 27.2077L9.5438 27.1947L10.6938 23.7447L10.6718 23.7077C8.4618 19.9607 9.4628 15.3167 13.0848 12.5887L13.3138 12.4207Z" fill="#6A6A6A"/>
<path d="M16.561 16.1172C16.8593 16.1195 17.1576 16.1763 17.4559 16.2876C17.7542 16.3989 18.0264 16.5835 18.2726 16.8416C18.5188 17.0973 18.7165 17.4465 18.8657 17.8892C19.0148 18.3319 19.0894 18.887 19.0894 19.5547C19.0894 20.201 19.0278 20.7751 18.9047 21.277C18.784 21.7765 18.6088 22.1979 18.3792 22.5412C18.1519 22.8844 17.8749 23.1449 17.5482 23.3224C17.2239 23.5 16.8569 23.5888 16.4473 23.5888C16.0401 23.5888 15.6767 23.5083 15.3571 23.3473C15.0399 23.1839 14.7795 22.9578 14.5759 22.669C14.3747 22.3778 14.2456 22.0405 14.1888 21.6569H15.0553C15.1334 21.9907 15.2885 22.2665 15.5205 22.4843C15.7549 22.6998 16.0638 22.8075 16.4473 22.8075C17.0084 22.8075 17.4511 22.5625 17.7755 22.0724C18.1022 21.5824 18.2655 20.8899 18.2655 19.995H18.2087C18.0761 20.1939 17.9187 20.3655 17.7364 20.5099C17.5541 20.6543 17.3517 20.7656 17.1292 20.8437C16.9066 20.9218 16.6699 20.9609 16.4189 20.9609C16.0023 20.9609 15.6199 20.8579 15.2719 20.652C14.9263 20.4436 14.6493 20.1584 14.441 19.7961C14.235 19.4316 14.132 19.0149 14.132 18.5461C14.132 18.1011 14.2314 17.6939 14.4303 17.3245C14.6315 16.9529 14.9133 16.6569 15.2755 16.4368C15.6401 16.2166 16.0686 16.1101 16.561 16.1172ZM16.561 16.8984C16.2627 16.8984 15.994 16.973 15.7549 17.1221C15.5181 17.2689 15.3299 17.4678 15.1902 17.7187C15.0529 17.9673 14.9843 18.2431 14.9843 18.5461C14.9843 18.8492 15.0506 19.125 15.1831 19.3736C15.3181 19.6198 15.5016 19.8163 15.7336 19.963C15.9679 20.1075 16.2343 20.1797 16.5326 20.1797C16.7575 20.1797 16.967 20.1359 17.1611 20.0483C17.3553 19.9583 17.5245 19.8364 17.6689 19.6825C17.8157 19.5263 17.9305 19.3499 18.0134 19.1534C18.0963 18.9545 18.1377 18.7474 18.1377 18.5319C18.1377 18.2478 18.069 17.9815 17.9317 17.7329C17.7968 17.4843 17.6097 17.2831 17.3706 17.1292C17.1339 16.9754 16.864 16.8984 16.561 16.8984ZM22.6308 22.2109V17.5234H23.4262V22.2109H22.6308ZM20.6847 20.2649V19.4694H25.3722V20.2649H20.6847Z" fill="#C2C2C2"/>
</svg>
