<svg width="53" height="44" viewBox="0 0 53 44" fill="none" xmlns="http://www.w3.org/2000/svg">
<path d="M26 33.75C20.35 33.75 15.75 29.15 15.75 23.5C15.75 17.85 20.35 13.25 26 13.25C31.65 13.25 36.25 17.85 36.25 23.5C36.25 29.15 31.65 33.75 26 33.75ZM26 14.75C21.17 14.75 17.25 18.68 17.25 23.5C17.25 28.32 21.17 32.25 26 32.25C30.83 32.25 34.75 28.32 34.75 23.5C34.75 18.68 30.83 14.75 26 14.75Z" fill="#CB65EF"/>
<path d="M36.4999 34.7499C36.3099 34.7499 36.1199 34.6799 35.9699 34.5299L33.9699 32.5299C33.6799 32.2399 33.6799 31.7599 33.9699 31.4699C34.2599 31.1799 34.7399 31.1799 35.0299 31.4699L37.0299 33.4699C37.3199 33.7599 37.3199 34.2399 37.0299 34.5299C36.8799 34.6799 36.6899 34.7499 36.4999 34.7499Z" fill="#CB65EF"/>
<path d="M13 0H41V1C41 2.10457 40.1046 3 39 3H15C13.8954 3 13 2.10457 13 1V0Z" fill="#CB65EF"/>
</svg>
