<svg width="282" height="62" viewBox="0 0 282 62" fill="none" xmlns="http://www.w3.org/2000/svg">
<rect width="58" height="62" rx="10" fill="white" fill-opacity="0.25"/>
<path d="M22.75 19.2729C22.75 28.4771 18.0854 33.0833 12.3333 33.0833M12.3333 19.2729H26.9167" stroke="white" stroke-width="4" stroke-linecap="round" stroke-linejoin="round"/>
<path d="M14.4167 24.75C14.4167 29.2167 19.1084 32.8917 26.9167 33.0833M29 47.6667L37.3334 28.9167L45.6667 47.6667M43.7917 43.5H30.875M17.9459 12.25L19.5979 13.4625" stroke="white" stroke-width="4" stroke-linecap="round" stroke-linejoin="round"/>
<path d="M88.992 15.44C90.56 15.44 91.928 15.552 93.096 15.776C94.28 15.984 95.264 16.44 96.048 17.144C96.848 17.848 97.248 18.872 97.248 20.216C97.248 22.696 96.144 24.376 93.936 25.256C91.744 26.12 89.28 26.552 86.544 26.552C83.824 26.552 81.304 26.112 78.984 25.232C76.664 24.336 75.504 22.64 75.504 20.144L81.624 20.12C81.624 21.224 82.12 21.928 83.112 22.232C84.12 22.52 85.296 22.664 86.64 22.664C87.904 22.664 88.984 22.48 89.88 22.112C90.792 21.744 91.248 21.144 91.248 20.312V20.288C91.248 19.824 90.968 19.48 90.408 19.256C89.848 19.032 89.248 18.896 88.608 18.848C87.968 18.8 87.2 18.768 86.304 18.752H84.504C82.776 18.752 81.272 18.648 79.992 18.44C78.728 18.216 77.664 17.736 76.8 17C75.936 16.264 75.504 15.176 75.504 13.736C75.504 11.24 76.624 9.616 78.864 8.864C81.12 8.096 83.68 7.712 86.544 7.712C89.232 7.712 91.688 8.152 93.912 9.032C96.136 9.912 97.248 11.608 97.248 14.12H91.224C91.224 13.32 90.768 12.728 89.856 12.344C88.96 11.944 87.864 11.72 86.568 11.672C85.176 11.672 84 11.832 83.04 12.152C82.08 12.472 81.6 12.976 81.6 13.664C81.6 14.384 82.088 14.864 83.064 15.104C84.04 15.344 85.144 15.464 86.376 15.464L88.992 15.44ZM117.438 19.088H106.35V21.8L119.454 21.704V26H100.422V8.24H119.454L119.478 12.536H106.35V14.888H117.438V19.088ZM128.702 8.24V21.44H139.886V26H122.774V8.24H128.702ZM160.196 19.088H149.108V21.8L162.212 21.704V26H143.18V8.24H162.212L162.236 12.536H149.108V14.888H160.196V19.088ZM165.052 17.144C165.052 15.368 165.572 13.768 166.612 12.344C167.668 10.92 169.1 9.808 170.908 9.008C172.732 8.192 174.748 7.784 176.956 7.784C178.94 7.784 180.732 8.104 182.332 8.744C183.932 9.368 185.244 10.256 186.268 11.408C187.292 12.544 187.972 13.88 188.308 15.416H182.164C181.924 14.776 181.516 14.224 180.94 13.76C180.38 13.28 179.748 12.92 179.044 12.68C178.34 12.44 177.652 12.32 176.98 12.32C176.036 12.32 175.116 12.512 174.22 12.896C173.34 13.28 172.62 13.84 172.06 14.576C171.516 15.296 171.244 16.152 171.244 17.144C171.244 18.136 171.516 19 172.06 19.736C172.604 20.456 173.308 21.008 174.172 21.392C175.052 21.76 175.988 21.944 176.98 21.944C178.084 21.944 179.1 21.68 180.028 21.152C180.972 20.624 181.668 19.872 182.116 18.896H188.284C187.932 20.416 187.244 21.752 186.22 22.904C185.196 24.04 183.892 24.92 182.308 25.544C180.724 26.168 178.94 26.48 176.956 26.48C174.764 26.48 172.756 26.072 170.932 25.256C169.124 24.44 167.692 23.32 166.636 21.896C165.58 20.472 165.052 18.888 165.052 17.144ZM190.805 13.04V8.24H211.781L190.805 13.04ZM211.781 8.24V13.064H204.293V26H198.389V13.064H190.805V8.24H211.781Z" fill="white"/>
<path d="M81.912 36.24V49.44H93.096V54H75.984V36.24H81.912ZM120.271 54H114.295L112.639 50.952H102.583L100.927 54H94.9506L104.575 36.24H110.647L120.271 54ZM107.623 41.664L104.743 46.944H110.479L107.623 41.664ZM128.397 54H122.469V36.24L128.397 54ZM145.149 54H139.245H145.149ZM139.245 47.112V36.24H145.149V54H139.245L128.397 43.128V54H122.469V36.24H128.397L139.245 47.112ZM171.605 54H167.885L167.429 52.632C165.413 53.864 163.013 54.48 160.229 54.48C158.021 54.48 156.013 54.072 154.205 53.256C152.397 52.44 150.965 51.32 149.909 49.896C148.869 48.472 148.349 46.888 148.349 45.144C148.349 43.368 148.877 41.768 149.933 40.344C150.989 38.92 152.421 37.808 154.229 37.008C156.037 36.192 158.037 35.784 160.229 35.784C162.197 35.784 163.981 36.064 165.581 36.624C167.181 37.184 168.501 38.008 169.541 39.096C170.581 40.168 171.253 41.464 171.557 42.984L165.389 43.008C165.069 42.08 164.429 41.4 163.469 40.968C162.525 40.536 161.453 40.32 160.253 40.32C159.261 40.32 158.357 40.52 157.541 40.92C156.725 41.304 156.077 41.864 155.597 42.6C155.133 43.32 154.901 44.168 154.901 45.144C154.901 46.136 155.141 47 155.621 47.736C156.101 48.456 156.749 49.008 157.565 49.392C158.381 49.76 159.277 49.944 160.253 49.944C161.229 49.944 162.141 49.76 162.989 49.392C163.837 49.024 164.501 48.488 164.981 47.784H160.325V44.616H171.581V46.704L171.605 54ZM190.486 36.24H196.534V45.336C196.534 47.064 196.054 48.624 195.094 50.016C194.134 51.408 192.838 52.504 191.206 53.304C189.574 54.088 187.79 54.48 185.854 54.48C183.774 54.48 181.886 54.088 180.19 53.304C178.494 52.52 177.15 51.44 176.158 50.064C175.182 48.672 174.686 47.112 174.67 45.384V36.24H180.814V45.384C180.814 46.84 181.31 47.912 182.302 48.6C183.31 49.288 184.502 49.632 185.878 49.632C186.598 49.632 187.31 49.496 188.014 49.224C188.718 48.936 189.302 48.472 189.766 47.832C190.246 47.192 190.486 46.376 190.486 45.384V36.24ZM221.678 54H215.702L214.046 50.952H203.99L202.334 54H196.358L205.982 36.24H212.054L221.678 54ZM209.03 41.664L206.15 46.944H211.886L209.03 41.664ZM244.848 54H241.128L240.672 52.632C238.656 53.864 236.256 54.48 233.472 54.48C231.264 54.48 229.256 54.072 227.448 53.256C225.64 52.44 224.208 51.32 223.152 49.896C222.112 48.472 221.592 46.888 221.592 45.144C221.592 43.368 222.12 41.768 223.176 40.344C224.232 38.92 225.664 37.808 227.472 37.008C229.28 36.192 231.28 35.784 233.472 35.784C235.44 35.784 237.224 36.064 238.824 36.624C240.424 37.184 241.744 38.008 242.784 39.096C243.824 40.168 244.496 41.464 244.8 42.984L238.632 43.008C238.312 42.08 237.672 41.4 236.712 40.968C235.768 40.536 234.696 40.32 233.496 40.32C232.504 40.32 231.6 40.52 230.784 40.92C229.968 41.304 229.32 41.864 228.84 42.6C228.376 43.32 228.144 44.168 228.144 45.144C228.144 46.136 228.384 47 228.864 47.736C229.344 48.456 229.992 49.008 230.808 49.392C231.624 49.76 232.52 49.944 233.496 49.944C234.472 49.944 235.384 49.76 236.232 49.392C237.08 49.024 237.744 48.488 238.224 47.784H233.568V44.616H244.824V46.704L244.848 54ZM265.049 47.088H253.961V49.8L267.065 49.704V54H248.033V36.24H267.065L267.089 40.536H253.961V42.888H265.049V47.088Z" fill="#D6ADD7"/>
</svg>
