<svg width="32" height="32" viewBox="0 0 32 32" fill="none" xmlns="http://www.w3.org/2000/svg">
<path d="M18.96 28.84C17.3867 28.84 15.16 27.7333 13.4 22.44L12.44 19.56L9.56001 18.6C4.28001 16.84 3.17334 14.6133 3.17334 13.04C3.17334 11.48 4.28001 9.23997 9.56001 7.46664L20.88 3.69331C23.7067 2.74664 26.0667 3.02664 27.52 4.46664C28.9733 5.90664 29.2533 8.27997 28.3067 11.1066L24.5333 22.4266C22.76 27.7333 20.5333 28.84 18.96 28.84ZM10.1867 9.37331C6.48001 10.6133 5.16001 12.08 5.16001 13.04C5.16001 14 6.48001 15.4666 10.1867 16.6933L13.5467 17.8133C13.84 17.9066 14.08 18.1466 14.1733 18.44L15.2933 21.8C16.52 25.5066 18 26.8266 18.96 26.8266C19.92 26.8266 21.3867 25.5066 22.6267 21.8L26.4 10.48C27.08 8.42664 26.96 6.74664 26.0933 5.87997C25.2267 5.01331 23.5467 4.90664 21.5067 5.58664L10.1867 9.37331Z" fill="white"/>
<path d="M13.4799 19.2C13.2266 19.2 12.9733 19.1067 12.7733 18.9067C12.3866 18.52 12.3866 17.88 12.7733 17.4934L17.5466 12.7067C17.9333 12.32 18.5733 12.32 18.9599 12.7067C19.3466 13.0934 19.3466 13.7334 18.9599 14.12L14.1866 18.9067C13.9999 19.1067 13.7333 19.2 13.4799 19.2Z" fill="white"/>
</svg>
