<svg width="20" height="14" viewBox="0 0 20 14" fill="none" xmlns="http://www.w3.org/2000/svg">
<path d="M3.875 5.875C2.89062 5.875 2.125 5.10938 2.125 4.125C2.125 3.16797 2.89062 2.375 3.875 2.375C4.83203 2.375 5.625 3.16797 5.625 4.125C5.625 5.10938 4.83203 5.875 3.875 5.875ZM16.125 5.875C15.1406 5.875 14.375 5.10938 14.375 4.125C14.375 3.16797 15.1406 2.375 16.125 2.375C17.082 2.375 17.875 3.16797 17.875 4.125C17.875 5.10938 17.082 5.875 16.125 5.875ZM17 6.75C17.957 6.75 18.75 7.54297 18.75 8.5V9.375C18.75 9.86719 18.3398 10.25 17.875 10.25H16.0703C15.8789 8.96484 15.1133 7.87109 13.9922 7.26953C14.3203 6.96875 14.7578 6.75 15.25 6.75H17ZM10 6.75C8.30469 6.75 6.9375 5.38281 6.9375 3.6875C6.9375 2.01953 8.30469 0.625 10 0.625C11.668 0.625 13.0625 2.01953 13.0625 3.6875C13.0625 5.38281 11.668 6.75 10 6.75ZM12.0781 7.625C13.8281 7.625 15.25 9.04688 15.25 10.7969V11.5625C15.25 12.3008 14.6484 12.875 13.9375 12.875H6.0625C5.32422 12.875 4.75 12.3008 4.75 11.5625V10.7969C4.75 9.04688 6.14453 7.625 7.89453 7.625H8.11328C8.6875 7.89844 9.31641 8.0625 10 8.0625C10.6562 8.0625 11.2852 7.89844 11.8594 7.625H12.0781ZM5.98047 7.26953C4.85938 7.87109 4.09375 8.96484 3.90234 10.25H2.125C1.63281 10.25 1.25 9.86719 1.25 9.375V8.5C1.25 7.54297 2.01562 6.75 3 6.75H4.75C5.21484 6.75 5.65234 6.96875 5.98047 7.26953Z" fill="#374151"/>
</svg>
