<svg width="11" height="11" viewBox="0 0 11 11" fill="none" xmlns="http://www.w3.org/2000/svg">
<path d="M10.0237 5.75C10.0237 8.42578 7.83624 10.5938 5.17999 10.5938C2.50421 10.5938 0.336243 8.42578 0.336243 5.75C0.336243 3.09375 2.50421 0.90625 5.17999 0.90625C7.83624 0.90625 10.0237 3.09375 10.0237 5.75ZM4.61359 8.32812L8.20734 4.73438C8.32452 4.61719 8.32452 4.40234 8.20734 4.28516L7.75812 3.85547C7.64093 3.71875 7.44562 3.71875 7.32843 3.85547L4.39874 6.78516L3.01202 5.41797C2.89484 5.28125 2.69952 5.28125 2.58234 5.41797L2.13312 5.84766C2.01593 5.96484 2.01593 6.17969 2.13312 6.29688L4.16437 8.32812C4.28156 8.44531 4.4964 8.44531 4.61359 8.32812Z" fill="white"/>
</svg>
