<svg width="18" height="10" viewBox="0 0 18 10" fill="none" xmlns="http://www.w3.org/2000/svg">
<path d="M11.2859 0C11.9172 0.000146862 12.4285 0.49753 12.4285 1.11133V8.88867C12.4285 9.50247 11.9172 9.99985 11.2859 10H1.57104C0.939745 9.99985 0.428467 9.50247 0.428467 8.88867V1.11133C0.428467 0.49753 0.939745 0.000146424 1.57104 0H11.2859ZM16.9998 1.11133C17.3153 1.11133 17.571 1.36017 17.571 1.66699V8.33301C17.571 8.63983 17.3153 8.88867 16.9998 8.88867C16.855 8.88864 16.7245 8.83436 16.6238 8.74805L16.6218 8.75L13.571 6.11133V3.88867L16.6218 1.25H16.6238C16.7243 1.16416 16.8554 1.11136 16.9998 1.11133Z" fill="white"/>
</svg>
