<svg width="50" height="33" viewBox="0 0 50 33" fill="none" xmlns="http://www.w3.org/2000/svg">
<g filter="url(#filter0_d_86_409)">
<mask id="path-1-outside-1_86_409" maskUnits="userSpaceOnUse" x="1.98001" y="2" width="42" height="25" fill="black">
<rect fill="white" x="1.98001" y="2" width="42" height="25"/>
<path d="M11.6411 25L3.96536 3.52539H8.66751L14.1021 19.4189L19.3609 3.52539H23.9605L16.2701 25H11.6411ZM25.0738 18.0127L29.2925 17.6025C29.5464 19.0186 30.0591 20.0586 30.8306 20.7227C31.6118 21.3867 32.6617 21.7188 33.98 21.7188C35.3765 21.7188 36.4263 21.4258 37.1294 20.8398C37.8423 20.2441 38.1988 19.5508 38.1988 18.7598C38.1988 18.252 38.0474 17.8223 37.7447 17.4707C37.4517 17.1094 36.9341 16.7969 36.1919 16.5332C35.6841 16.3574 34.5269 16.0449 32.7202 15.5957C30.396 15.0195 28.7652 14.3115 27.8277 13.4717C26.5093 12.29 25.8501 10.8496 25.8501 9.15039C25.8501 8.05664 26.1577 7.03613 26.773 6.08887C27.398 5.13184 28.2915 4.4043 29.4536 3.90625C30.6255 3.4082 32.0367 3.15918 33.687 3.15918C36.3824 3.15918 38.4087 3.75 39.7661 4.93164C41.1333 6.11328 41.8511 7.69043 41.9195 9.66309L37.5835 9.85352C37.398 8.75 36.9976 7.95898 36.3824 7.48047C35.7769 6.99219 34.8638 6.74805 33.6431 6.74805C32.3833 6.74805 31.397 7.00684 30.6841 7.52441C30.2251 7.85645 29.9956 8.30078 29.9956 8.85742C29.9956 9.36523 30.2105 9.7998 30.6402 10.1611C31.187 10.6201 32.5152 11.0986 34.6245 11.5967C36.7339 12.0947 38.2915 12.6123 39.2974 13.1494C40.313 13.6768 41.104 14.4043 41.6704 15.332C42.2466 16.25 42.5347 17.3877 42.5347 18.7451C42.5347 19.9756 42.1929 21.1279 41.5093 22.2021C40.8257 23.2764 39.8589 24.0771 38.6089 24.6045C37.3589 25.1221 35.8013 25.3809 33.9361 25.3809C31.2212 25.3809 29.1363 24.7559 27.6812 23.5059C26.2261 22.2461 25.357 20.415 25.0738 18.0127Z"/>
</mask>
<path d="M11.6411 25L3.96536 3.52539H8.66751L14.1021 19.4189L19.3609 3.52539H23.9605L16.2701 25H11.6411ZM25.0738 18.0127L29.2925 17.6025C29.5464 19.0186 30.0591 20.0586 30.8306 20.7227C31.6118 21.3867 32.6617 21.7188 33.98 21.7188C35.3765 21.7188 36.4263 21.4258 37.1294 20.8398C37.8423 20.2441 38.1988 19.5508 38.1988 18.7598C38.1988 18.252 38.0474 17.8223 37.7447 17.4707C37.4517 17.1094 36.9341 16.7969 36.1919 16.5332C35.6841 16.3574 34.5269 16.0449 32.7202 15.5957C30.396 15.0195 28.7652 14.3115 27.8277 13.4717C26.5093 12.29 25.8501 10.8496 25.8501 9.15039C25.8501 8.05664 26.1577 7.03613 26.773 6.08887C27.398 5.13184 28.2915 4.4043 29.4536 3.90625C30.6255 3.4082 32.0367 3.15918 33.687 3.15918C36.3824 3.15918 38.4087 3.75 39.7661 4.93164C41.1333 6.11328 41.8511 7.69043 41.9195 9.66309L37.5835 9.85352C37.398 8.75 36.9976 7.95898 36.3824 7.48047C35.7769 6.99219 34.8638 6.74805 33.6431 6.74805C32.3833 6.74805 31.397 7.00684 30.6841 7.52441C30.2251 7.85645 29.9956 8.30078 29.9956 8.85742C29.9956 9.36523 30.2105 9.7998 30.6402 10.1611C31.187 10.6201 32.5152 11.0986 34.6245 11.5967C36.7339 12.0947 38.2915 12.6123 39.2974 13.1494C40.313 13.6768 41.104 14.4043 41.6704 15.332C42.2466 16.25 42.5347 17.3877 42.5347 18.7451C42.5347 19.9756 42.1929 21.1279 41.5093 22.2021C40.8257 23.2764 39.8589 24.0771 38.6089 24.6045C37.3589 25.1221 35.8013 25.3809 33.9361 25.3809C31.2212 25.3809 29.1363 24.7559 27.6812 23.5059C26.2261 22.2461 25.357 20.415 25.0738 18.0127Z" fill="#FFC107"/>
<path d="M11.6411 25L10.6995 25.3366L10.9366 26H11.6411V25ZM3.96536 3.52539V2.52539H2.54597L3.02371 3.86197L3.96536 3.52539ZM8.66751 3.52539L9.61372 3.20185L9.38242 2.52539H8.66751V3.52539ZM14.1021 19.4189L13.1559 19.7425L14.1177 22.5553L15.0515 19.7331L14.1021 19.4189ZM19.3609 3.52539V2.52539H18.6384L18.4115 3.21126L19.3609 3.52539ZM23.9605 3.52539L24.9019 3.86254L25.3808 2.52539H23.9605V3.52539ZM16.2701 25V26H16.9741L17.2115 25.3372L16.2701 25ZM11.6411 25L12.5828 24.6634L4.90702 3.18881L3.96536 3.52539L3.02371 3.86197L10.6995 25.3366L11.6411 25ZM3.96536 3.52539V4.52539H8.66751V3.52539V2.52539H3.96536V3.52539ZM8.66751 3.52539L7.7213 3.84893L13.1559 19.7425L14.1021 19.4189L15.0483 19.0954L9.61372 3.20185L8.66751 3.52539ZM14.1021 19.4189L15.0515 19.7331L20.3103 3.83952L19.3609 3.52539L18.4115 3.21126L13.1527 19.1048L14.1021 19.4189ZM19.3609 3.52539V4.52539H23.9605V3.52539V2.52539H19.3609V3.52539ZM23.9605 3.52539L23.019 3.18824L15.3286 24.6628L16.2701 25L17.2115 25.3372L24.9019 3.86254L23.9605 3.52539ZM16.2701 25V24H11.6411V25V26H16.2701V25ZM25.0738 18.0127L24.977 17.0174L23.9611 17.1162L24.0806 18.1298L25.0738 18.0127ZM29.2925 17.6025L30.2768 17.426L30.114 16.518L29.1957 16.6072L29.2925 17.6025ZM30.8306 20.7227L30.1782 21.4806L30.1829 21.4846L30.8306 20.7227ZM37.1294 20.8398L37.7696 21.6081L37.7706 21.6072L37.1294 20.8398ZM37.7447 17.4707L36.9679 18.1005L36.9772 18.112L36.9869 18.1232L37.7447 17.4707ZM36.1919 16.5332L36.5267 15.5909L36.519 15.5882L36.1919 16.5332ZM32.7202 15.5957L32.9615 14.6253L32.9609 14.6251L32.7202 15.5957ZM27.8277 13.4717L27.1602 14.2163L27.1604 14.2165L27.8277 13.4717ZM26.773 6.08887L25.9357 5.54208L25.9343 5.54418L26.773 6.08887ZM29.4536 3.90625L29.0625 2.98591L29.0597 2.9871L29.4536 3.90625ZM39.7661 4.93164L39.1096 5.6859L39.1122 5.68822L39.7661 4.93164ZM41.9195 9.66309L41.9633 10.6621L42.9532 10.6187L42.9189 9.62845L41.9195 9.66309ZM37.5835 9.85352L36.5974 10.0193L36.744 10.8914L37.6274 10.8526L37.5835 9.85352ZM36.3824 7.48047L35.7546 8.25888L35.7615 8.26441L35.7684 8.26982L36.3824 7.48047ZM30.6841 7.52441L31.2702 8.33464L31.2716 8.33363L30.6841 7.52441ZM30.6402 10.1611L29.9966 10.9265L29.9973 10.9271L30.6402 10.1611ZM39.2974 13.1494L38.8263 14.0316L38.8366 14.0369L39.2974 13.1494ZM41.6704 15.332L40.8169 15.8532L40.8235 15.8636L41.6704 15.332ZM38.6089 24.6045L38.9915 25.5284L38.9976 25.5259L38.6089 24.6045ZM27.6812 23.5059L27.0266 24.2619L27.0296 24.2644L27.6812 23.5059ZM25.0738 18.0127L25.1705 19.008L29.3893 18.5978L29.2925 17.6025L29.1957 16.6072L24.977 17.0174L25.0738 18.0127ZM29.2925 17.6025L28.3082 17.779C28.5862 19.3294 29.173 20.6153 30.1782 21.4806L30.8306 20.7227L31.483 19.9648C30.9452 19.5019 30.5066 18.7077 30.2768 17.426L29.2925 17.6025ZM30.8306 20.7227L30.1829 21.4846C31.1916 22.3419 32.4936 22.7188 33.98 22.7188V21.7188V20.7188C32.8297 20.7188 32.0321 20.4315 31.4782 19.9607L30.8306 20.7227ZM33.98 21.7188V22.7188C35.4928 22.7188 36.8134 22.4049 37.7696 21.6081L37.1294 20.8398L36.4892 20.0716C36.0392 20.4467 35.2602 20.7188 33.98 20.7188V21.7188ZM37.1294 20.8398L37.7706 21.6072C38.6669 20.8583 39.1988 19.9001 39.1988 18.7598H38.1988H37.1988C37.1988 19.2015 37.0178 19.63 36.4882 20.0725L37.1294 20.8398ZM38.1988 18.7598H39.1988C39.1988 18.0368 38.9766 17.3689 38.5024 16.8182L37.7447 17.4707L36.9869 18.1232C37.1181 18.2757 37.1988 18.4671 37.1988 18.7598H38.1988ZM37.7447 17.4707L38.5214 16.8409C38.0578 16.2691 37.3358 15.8784 36.5267 15.5909L36.1919 16.5332L35.8572 17.4755C36.5324 17.7154 36.8456 17.9497 36.9679 18.1005L37.7447 17.4707ZM36.1919 16.5332L36.519 15.5882C35.9604 15.3949 34.7563 15.0715 32.9615 14.6253L32.7202 15.5957L32.4789 16.5662C34.2975 17.0183 35.4078 17.32 35.8648 17.4782L36.1919 16.5332ZM32.7202 15.5957L32.9609 14.6251C30.6764 14.0588 29.2441 13.398 28.4949 12.7268L27.8277 13.4717L27.1604 14.2165C28.2862 15.225 30.1157 15.9803 32.4796 16.5663L32.7202 15.5957ZM27.8277 13.4717L28.4951 12.727C27.3783 11.726 26.8501 10.5522 26.8501 9.15039H25.8501H24.8501C24.8501 11.1471 25.6403 12.854 27.1602 14.2163L27.8277 13.4717ZM25.8501 9.15039H26.8501C26.8501 8.25656 27.0981 7.42428 27.6116 6.63355L26.773 6.08887L25.9343 5.54418C25.2174 6.64799 24.8501 7.85672 24.8501 9.15039H25.8501ZM26.773 6.08887L27.6103 6.63566C28.1161 5.86107 28.8467 5.25433 29.8476 4.8254L29.4536 3.90625L29.0597 2.9871C27.7363 3.55427 26.6799 4.4026 25.9357 5.54208L26.773 6.08887ZM29.4536 3.90625L29.8448 4.82658C30.8622 4.39418 32.133 4.15918 33.687 4.15918V3.15918V2.15918C31.9403 2.15918 30.3888 2.42222 29.0625 2.98592L29.4536 3.90625ZM33.687 3.15918V4.15918C36.2574 4.15918 38.0061 4.72532 39.1096 5.6859L39.7661 4.93164L40.4227 4.17739C38.8114 2.77468 36.5073 2.15918 33.687 2.15918V3.15918ZM39.7661 4.93164L39.1122 5.68822C40.2481 6.66988 40.8604 7.9747 40.9201 9.69772L41.9195 9.66309L42.9189 9.62845C42.8419 7.40616 42.0186 5.55668 40.42 4.17506L39.7661 4.93164ZM41.9195 9.66309L41.8756 8.66405L37.5396 8.85448L37.5835 9.85352L37.6274 10.8526L41.9633 10.6621L41.9195 9.66309ZM37.5835 9.85352L38.5697 9.6877C38.3606 8.44394 37.8809 7.37913 36.9963 6.69112L36.3824 7.48047L35.7684 8.26982C36.1143 8.53884 36.4354 9.05606 36.5974 10.0193L37.5835 9.85352ZM36.3824 7.48047L37.0101 6.70206C36.1505 6.00882 34.9698 5.74805 33.6431 5.74805V6.74805V7.74805C34.7578 7.74805 35.4033 7.97555 35.7546 8.25888L36.3824 7.48047ZM33.6431 6.74805V5.74805C32.2598 5.74805 31.0396 6.03055 30.0966 6.7152L30.6841 7.52441L31.2716 8.33363C31.7544 7.98312 32.5069 7.74805 33.6431 7.74805V6.74805ZM30.6841 7.52441L30.098 6.71419C29.3845 7.23032 28.9956 7.97327 28.9956 8.85742H29.9956H30.9956C30.9956 8.62829 31.0657 8.48257 31.2702 8.33464L30.6841 7.52441ZM29.9956 8.85742H28.9956C28.9956 9.69392 29.3679 10.3978 29.9966 10.9265L30.6402 10.1611L31.2838 9.39577C31.0531 9.2018 30.9956 9.03655 30.9956 8.85742H29.9956ZM30.6402 10.1611L29.9973 10.9271C30.4116 11.2748 31.0191 11.5571 31.7075 11.8051C32.4208 12.0621 33.3204 12.3163 34.3947 12.5699L34.6245 11.5967L34.8543 10.6234C33.8193 10.3791 33.0002 10.145 32.3854 9.92346C31.7456 9.69295 31.4157 9.50646 31.283 9.39516L30.6402 10.1611ZM34.6245 11.5967L34.3947 12.5699C36.4811 13.0625 37.9371 13.5567 38.8264 14.0315L39.2974 13.1494L39.7684 12.2673C38.646 11.6679 36.9867 11.1269 34.8543 10.6234L34.6245 11.5967ZM39.2974 13.1494L38.8366 14.0369C39.6993 14.4848 40.3507 15.0894 40.8169 15.8531L41.6704 15.332L42.5239 14.8109C41.8574 13.7192 40.9268 12.8687 39.7582 12.2619L39.2974 13.1494ZM41.6704 15.332L40.8235 15.8636C41.2772 16.5866 41.5347 17.5285 41.5347 18.7451H42.5347H43.5347C43.5347 17.2469 43.216 15.9134 42.5174 14.8004L41.6704 15.332ZM42.5347 18.7451H41.5347C41.5347 19.7785 41.2509 20.7456 40.6656 21.6653L41.5093 22.2021L42.353 22.739C43.1349 21.5102 43.5347 20.1726 43.5347 18.7451H42.5347ZM41.5093 22.2021L40.6656 21.6653C40.0984 22.5566 39.296 23.2293 38.2202 23.6831L38.6089 24.6045L38.9976 25.5259C40.4219 24.925 41.553 23.9961 42.353 22.739L41.5093 22.2021ZM38.6089 24.6045L38.2264 23.6806C37.1342 24.1328 35.7165 24.3809 33.9361 24.3809V25.3809V26.3809C35.8861 26.3809 37.5836 26.1114 38.9915 25.5284L38.6089 24.6045ZM33.9361 25.3809V24.3809C31.3621 24.3809 29.5438 23.7877 28.3328 22.7473L27.6812 23.5059L27.0296 24.2644C28.7287 25.724 31.0803 26.3809 33.9361 26.3809V25.3809ZM27.6812 23.5059L28.3357 22.7498C27.1142 21.6923 26.3287 20.1164 26.0669 17.8956L25.0738 18.0127L24.0806 18.1298C24.3852 20.7137 25.338 22.7999 27.0266 24.2619L27.6812 23.5059Z" fill="white" mask="url(#path-1-outside-1_86_409)"/>
</g>
<defs>
<filter id="filter0_d_86_409" x="0.545959" y="0.15918" width="48.9887" height="32.2217" filterUnits="userSpaceOnUse" color-interpolation-filters="sRGB">
<feFlood flood-opacity="0" result="BackgroundImageFix"/>
<feColorMatrix in="SourceAlpha" type="matrix" values="0 0 0 0 0 0 0 0 0 0 0 0 0 0 0 0 0 0 127 0" result="hardAlpha"/>
<feOffset dx="2" dy="2"/>
<feGaussianBlur stdDeviation="2"/>
<feComposite in2="hardAlpha" operator="out"/>
<feColorMatrix type="matrix" values="0 0 0 0 0 0 0 0 0 0 0 0 0 0 0 0 0 0 0.5 0"/>
<feBlend mode="normal" in2="BackgroundImageFix" result="effect1_dropShadow_86_409"/>
<feBlend mode="normal" in="SourceGraphic" in2="effect1_dropShadow_86_409" result="shape"/>
</filter>
</defs>
</svg>
